<svg xmlns="http://www.w3.org/2000/svg" version="1.1" xmlns:xlink="http://www.w3.org/1999/xlink" xmlns:svgjs="http://svgjs.dev/svgjs" width="128" height="128" viewBox="0 0 128 128"><g transform="matrix(0.8046875,0,0,0.8046875,12.33404923636089,43.1894122933374)"><svg viewBox="0 0 155 63" data-background-color="#ffffff" preserveAspectRatio="xMidYMid meet" height="52" width="128" xmlns="http://www.w3.org/2000/svg" xmlns:xlink="http://www.w3.org/1999/xlink"><g id="tight-bounds" transform="matrix(1,0,0,1,0.2497317316899199,-0.16755428182837306)"><svg viewBox="0 0 154.5 63.33510856365675" height="63.33510856365675" width="154.5"><g><svg viewBox="0 0 154.5 63.33510856365675" height="63.33510856365675" width="154.5"><g><svg viewBox="0 0 154.5 63.33510856365675" height="63.33510856365675" width="154.5"><g id="textblocktransform"><svg viewBox="0 0 154.5 63.33510856365675" height="63.33510856365675" width="154.5" id="textblock"><g><svg viewBox="0 0 154.5 63.33510856365675" height="63.33510856365675" width="154.5"><g transform="matrix(1,0,0,1,0,0)"><svg width="154.5" viewBox="1.4 -27.3 66.5957687309471 27.300000000000004" height="63.33510856365675" data-palette-color="#4a596d"><g transform="matrix(1,0,0,1,0,0)"><g><svg width="12.972688730947098" viewBox="3.16 -36.36 78.76 36.36" height="5.989194436650059" data-palette-color="#4a596d" id="scriptelement" x="52.33634436547356" y="-12.167677218325029"><path d="M3.16 0L3.16-36.36 12.64-36.36 22.66-11.93 23.08-11.93 33.1-36.36 42.58-36.36 42.58 0 35.12 0 35.12-23.67 34.82-23.67 25.41-0.18 20.33-0.18 10.92-23.76 10.62-23.76 10.62 0 3.16 0ZM46.93-36.36L55.47-36.36 64.26-8.74 64.59-8.74 73.4-36.36 81.92-36.36 69.39 0 59.48 0 46.93-36.36Z" opacity="1" transform="matrix(1,0,0,1,0,0)" fill="#000000" class="undefined-123" data-fill-palette-color="primary" id="yy-123"></path></svg></g></g><path d="M49.65-9.173C49.65-14.239 53.757-18.346 58.823-18.346 63.889-18.346 67.996-14.239 67.996-9.173 67.996-4.107 63.889 0 58.823 0 53.757 0 49.65-4.107 49.65-9.173ZM58.823-0.4C63.668-0.4 67.596-4.328 67.596-9.173 67.596-14.018 63.668-17.946 58.823-17.946 53.977-17.946 50.05-14.018 50.05-9.173 50.05-4.328 53.977-0.4 58.823-0.4Z" fill="#000000" id="scriptcircle" data-fill-palette-color="primary"></path><path d="M14.85 0L1.4 0 1.4-2.1 2.05-2.1Q3.75-2.1 4.83-2.73 5.9-3.35 5.9-5.7L5.9-5.7 5.9-21.3Q5.9-23.5 4.8-24.1 3.7-24.7 2.05-24.7L2.05-24.7 1.9-24.7 1.9-26.8 9.75-26.8 10.4-22.75 10.65-22.75Q11.65-24.65 12.8-25.63 13.95-26.6 15.3-26.95 16.65-27.3 18.2-27.3L18.2-27.3Q20.6-27.3 22.55-26.28 24.5-25.25 25.45-22.75L25.45-22.75 25.85-22.75Q26.85-24.65 28.08-25.63 29.3-26.6 30.73-26.95 32.15-27.3 33.7-27.3L33.7-27.3Q37.55-27.3 39.7-24.98 41.85-22.65 41.85-17.5L41.85-17.5 41.85-5.7Q41.85-3.35 42.93-2.73 44-2.1 45.7-2.1L45.7-2.1 45.85-2.1 45.85 0 37.15 0 37.15-17.25Q37.15-20.5 35.98-22.3 34.8-24.1 31.9-24.1L31.9-24.1Q29.85-24.1 28.63-23.08 27.4-22.05 26.88-20.35 26.35-18.65 26.35-16.65L26.35-16.65 26.35-5.7Q26.35-3.35 27.43-2.73 28.5-2.1 30.2-2.1L30.2-2.1 30.35-2.1 30.35 0 21.65 0 21.65-17.25Q21.65-20.5 20.48-22.3 19.3-24.1 16.4-24.1L16.4-24.1Q14.25-24.1 12.98-22.98 11.7-21.85 11.15-20 10.6-18.15 10.6-16L10.6-16 10.6-5.45Q10.6-3.25 11.83-2.68 13.05-2.1 14.7-2.1L14.7-2.1 14.85-2.1 14.85 0Z" opacity="1" transform="matrix(1,0,0,1,0,0)" fill="#000000" class="wordmark-text-0" data-fill-palette-color="primary" id="text-0"></path></svg></g></svg></g></svg></g></svg></g></svg></g><defs></defs></svg><rect width="154.5" height="63.33510856365675" fill="none" stroke="none" visibility="hidden"></rect></g></svg></g></svg>