<svg xmlns="http://www.w3.org/2000/svg" version="1.1" xmlns:xlink="http://www.w3.org/1999/xlink" xmlns:svgjs="http://svgjs.dev/svgjs" width="2000" height="459" viewBox="0 0 2000 459"><g transform="matrix(1,0,0,1,-1.2121212121212466,0.6882046874479215)"><svg viewBox="0 0 396 91" data-background-color="#ffffff" preserveAspectRatio="xMidYMid meet" height="459" width="2000" xmlns="http://www.w3.org/2000/svg" xmlns:xlink="http://www.w3.org/1999/xlink"><g id="tight-bounds" transform="matrix(1,0,0,1,0.2400000000000091,-0.13644145219555526)"><svg viewBox="0 0 395.52 91.27288290439112" height="91.27288290439112" width="395.52"><g><svg viewBox="0 0 532.5157005929518 122.88694170957295" height="91.27288290439112" width="395.52"><g transform="matrix(1,0,0,1,0,16.98365113352275)"><svg viewBox="0 0 395.52 88.91963944252745" height="88.91963944252745" width="395.52"><g id="textblocktransform"><svg viewBox="0 0 395.52 88.91963944252745" height="88.91963944252745" width="395.52" id="textblock"><g><svg viewBox="0 0 395.52 59.763630709512384" height="59.763630709512384" width="395.52"><g transform="matrix(1,0,0,1,0,0)"><svg width="395.52" viewBox="1.4 -38 254.77576873094708 38.5" height="59.763630709512384" data-palette-color="#4a596d"><g transform="matrix(1,0,0,1,0,0)"><g><svg width="12.972688730947098" viewBox="3.16 -36.36 78.76 36.36" height="5.989194436650059" data-palette-color="#4a596d" id="scriptelement" x="240.51634436547354" y="-12.167677218325029"><path d="M3.16 0L3.16-36.36 12.64-36.36 22.66-11.93 23.08-11.93 33.1-36.36 42.58-36.36 42.58 0 35.12 0 35.12-23.67 34.82-23.67 25.41-0.18 20.33-0.18 10.92-23.76 10.62-23.76 10.62 0 3.16 0ZM46.93-36.36L55.47-36.36 64.26-8.74 64.59-8.74 73.4-36.36 81.92-36.36 69.39 0 59.48 0 46.93-36.36Z" opacity="1" transform="matrix(1,0,0,1,0,0)" fill="#000000" class="undefined-123" data-fill-palette-color="primary" id="yy-123"></path></svg></g></g><path d="M237.83-9.173C237.83-14.239 241.937-18.346 247.003-18.346 252.069-18.346 256.176-14.239 256.176-9.173 256.176-4.107 252.069 0 247.003 0 241.937 0 237.83-4.107 237.83-9.173ZM247.003-0.4C251.848-0.4 255.776-4.328 255.776-9.173 255.776-14.018 251.848-17.946 247.003-17.946 242.157-17.946 238.23-14.018 238.23-9.173 238.23-4.328 242.157-0.4 247.003-0.4Z" fill="#000000" id="scriptcircle" data-fill-palette-color="primary"></path><path d="M14.85 0L1.4 0 1.4-2.1 2.05-2.1Q3.75-2.1 4.83-2.73 5.9-3.35 5.9-5.7L5.9-5.7 5.9-21.3Q5.9-23.5 4.8-24.1 3.7-24.7 2.05-24.7L2.05-24.7 1.9-24.7 1.9-26.8 9.75-26.8 10.4-22.75 10.65-22.75Q11.65-24.65 12.8-25.63 13.95-26.6 15.3-26.95 16.65-27.3 18.2-27.3L18.2-27.3Q20.6-27.3 22.55-26.28 24.5-25.25 25.45-22.75L25.45-22.75 25.85-22.75Q26.85-24.65 28.08-25.63 29.3-26.6 30.73-26.95 32.15-27.3 33.7-27.3L33.7-27.3Q37.55-27.3 39.7-24.98 41.85-22.65 41.85-17.5L41.85-17.5 41.85-5.7Q41.85-3.35 42.93-2.73 44-2.1 45.7-2.1L45.7-2.1 45.85-2.1 45.85 0 37.15 0 37.15-17.25Q37.15-20.5 35.98-22.3 34.8-24.1 31.9-24.1L31.9-24.1Q29.85-24.1 28.63-23.08 27.4-22.05 26.88-20.35 26.35-18.65 26.35-16.65L26.35-16.65 26.35-5.7Q26.35-3.35 27.43-2.73 28.5-2.1 30.2-2.1L30.2-2.1 30.35-2.1 30.35 0 21.65 0 21.65-17.25Q21.65-20.5 20.48-22.3 19.3-24.1 16.4-24.1L16.4-24.1Q14.25-24.1 12.98-22.98 11.7-21.85 11.15-20 10.6-18.15 10.6-16L10.6-16 10.6-5.45Q10.6-3.25 11.83-2.68 13.05-2.1 14.7-2.1L14.7-2.1 14.85-2.1 14.85 0ZM61.6 0.5L61.6 0.5Q56.15 0.5 53.07-3.1 50-6.7 50-13.2L50-13.2Q50-20.2 52.9-23.75 55.8-27.3 61.1-27.3L61.1-27.3Q65.95-27.3 68.72-24.3 71.5-21.3 71.5-15.35L71.5-15.35 71.5-13.05 54.85-13.05Q54.95-7.6 56.82-5.13 58.7-2.65 62.3-2.65L62.3-2.65Q64.9-2.65 66.72-3.73 68.55-4.8 69.45-6.15L69.45-6.15Q69.8-6 70.1-5.55 70.4-5.1 70.4-4.45L70.4-4.45Q70.4-3.45 69.45-2.3 68.5-1.15 66.55-0.33 64.6 0.5 61.6 0.5ZM54.95-15.75L66.45-15.75Q66.45-19.75 65.22-22.18 64-24.6 61-24.6L61-24.6Q58.25-24.6 56.72-22.33 55.2-20.05 54.95-15.75L54.95-15.75ZM89 0L78.2-30.95Q77.7-32.55 76.9-33.08 76.09-33.6 74.65-33.6L74.65-33.6 74-33.6 74-35.7 87.75-35.7 87.75-33.6 86.59-33.6Q85.09-33.6 84.34-33.02 83.59-32.45 83.59-31.2L83.59-31.2Q83.59-30.8 83.7-30.35 83.8-29.9 84-29.35L84-29.35 89.5-13.1Q90.25-10.9 90.8-8.8 91.34-6.7 91.75-4.9L91.75-4.9Q92.15-6.7 92.7-8.75 93.25-10.8 94.05-13.1L94.05-13.1 99.55-29Q99.75-29.6 99.87-30.18 100-30.75 100-31.15L100-31.15Q100-32.45 99.17-33.02 98.34-33.6 96.7-33.6L96.7-33.6 95.55-33.6 95.55-35.7 107.75-35.7 107.75-33.6 106.8-33.6Q105.34-33.6 104.59-32.88 103.84-32.15 103-29.7L103-29.7 92.65 0 89 0ZM123.09 0L108.89 0 108.89-2.1 109.54-2.1Q110.64-2.1 111.57-2.33 112.49-2.55 113.07-3.28 113.64-4 113.64-5.45L113.64-5.45 113.64-21.3Q113.64-22.8 113.07-23.53 112.49-24.25 111.57-24.48 110.64-24.7 109.54-24.7L109.54-24.7 109.39-24.7 109.39-26.8 118.34-26.8 118.34-5.7Q118.34-4.15 118.89-3.38 119.44-2.6 120.39-2.35 121.34-2.1 122.44-2.1L122.44-2.1 123.09-2.1 123.09 0ZM115.79-31.8L115.79-31.8Q114.59-31.8 113.77-32.5 112.94-33.2 112.94-34.9L112.94-34.9Q112.94-36.65 113.77-37.33 114.59-38 115.79-38L115.79-38Q116.94-38 117.79-37.33 118.64-36.65 118.64-34.9L118.64-34.9Q118.64-33.2 117.79-32.5 116.94-31.8 115.79-31.8ZM138.09 0L124.64 0 124.64-2.1 125.04-2.1Q126.19-2.1 127.12-2.35 128.04-2.6 128.59-3.38 129.14-4.15 129.14-5.7L129.14-5.7 129.14-32.5Q129.14-34 128.56-34.73 127.99-35.45 127.07-35.68 126.14-35.9 125.04-35.9L125.04-35.9 124.64-35.9 124.64-38 133.84-38 133.84-18.7Q133.84-18.05 133.81-17 133.79-15.95 133.74-14.9 133.69-13.85 133.67-13.13 133.64-12.4 133.64-12.4L133.64-12.4 139.89-19.25Q141.49-21.05 142.06-22.03 142.64-23 142.64-23.7L142.64-23.7Q142.64-24.35 142.04-24.53 141.44-24.7 140.19-24.7L140.19-24.7 140.19-26.8 151.24-26.8 151.24-24.7Q149.54-24.7 147.84-23.48 146.14-22.25 144.19-20.05L144.19-20.05 140.69-16.1 147.34-6.2Q148.64-4.2 149.92-3.15 151.19-2.1 152.89-2.1L152.89-2.1 153.04-2.1 153.04 0 152.34 0Q150.19 0 148.74-0.15 147.29-0.3 146.31-0.78 145.34-1.25 144.47-2.23 143.59-3.2 142.54-4.85L142.54-4.85 137.54-12.7 133.84-9.95 133.84-5.45Q133.84-4 134.42-3.28 134.99-2.55 135.92-2.33 136.84-2.1 137.94-2.1L137.94-2.1 138.09-2.1 138.09 0ZM163.24 0.5L163.24 0.5Q159.89 0.5 157.69-1.45 155.49-3.4 155.49-7.5L155.49-7.5Q155.49-11.5 158.31-13.4 161.14-15.3 166.89-15.5L166.89-15.5 171.04-15.65 171.04-18.65Q171.04-20.45 170.74-21.83 170.44-23.2 169.44-24 168.44-24.8 166.39-24.8L166.39-24.8Q164.49-24.8 163.49-24.1 162.49-23.4 162.16-22.18 161.84-20.95 161.84-19.35L161.84-19.35Q159.74-19.35 158.66-20.08 157.59-20.8 157.59-22.5L157.59-22.5Q157.59-24.25 158.81-25.3 160.04-26.35 162.09-26.83 164.14-27.3 166.59-27.3L166.59-27.3Q171.19-27.3 173.46-25.35 175.74-23.4 175.74-18.65L175.74-18.65 175.74-5.7Q175.74-3.6 176.44-2.85 177.14-2.1 178.84-2.1L178.84-2.1 178.99-2.1 178.99 0 172.24 0 171.44-4.3 171.04-4.3Q169.99-2.9 168.99-1.83 167.99-0.75 166.66-0.13 165.34 0.5 163.24 0.5ZM164.39-2.6L164.39-2.6Q167.44-2.6 169.24-4.48 171.04-6.35 171.04-9.55L171.04-9.55 171.04-13.6 167.84-13.45Q163.59-13.25 161.96-11.73 160.34-10.2 160.34-7.25L160.34-7.25Q160.34-2.6 164.39-2.6ZM191.64 0.5L191.64 0.5Q187.89 0.5 185.64-0.85 183.39-2.2 183.39-4.8L183.39-4.8Q183.39-6.15 183.94-6.9 184.49-7.65 185.21-7.95 185.94-8.25 186.54-8.25L186.54-8.25Q186.54-5.65 187.71-3.78 188.89-1.9 191.94-1.9L191.94-1.9Q194.59-1.9 196.01-3.18 197.44-4.45 197.44-6.45L197.44-6.45Q197.44-7.7 196.91-8.5 196.39-9.3 195.06-10.08 193.74-10.85 191.29-11.9L191.29-11.9Q188.74-13.05 187.06-14.13 185.39-15.2 184.56-16.63 183.74-18.05 183.74-20.2L183.74-20.2Q183.74-23.6 186.31-25.43 188.89-27.25 193.14-27.25L193.14-27.25Q195.54-27.25 197.16-26.63 198.79-26 199.61-24.95 200.44-23.9 200.44-22.65L200.44-22.65Q200.44-21.3 199.51-20.48 198.59-19.65 196.84-19.65L196.84-19.65Q196.84-22.15 195.79-23.55 194.74-24.95 192.54-24.95L192.54-24.95Q189.99-24.95 188.89-23.83 187.79-22.7 187.79-20.95L187.79-20.95Q187.79-19.7 188.41-18.85 189.04-18 190.41-17.28 191.79-16.55 193.99-15.65L193.99-15.65Q196.64-14.55 198.29-13.45 199.94-12.35 200.71-10.9 201.49-9.45 201.49-7.35L201.49-7.35Q201.49-3.45 198.79-1.48 196.09 0.5 191.64 0.5ZM218.03 0L204.58 0 204.58-2.1 204.98-2.1Q206.68-2.1 207.88-2.73 209.08-3.35 209.08-5.7L209.08-5.7 209.08-32.5Q209.08-34 208.51-34.73 207.93-35.45 207.01-35.68 206.08-35.9 204.98-35.9L204.98-35.9 204.58-35.9 204.58-38 213.78-38 213.78-27Q213.78-26.1 213.73-25.13 213.68-24.15 213.63-23.45 213.58-22.75 213.58-22.75L213.58-22.75 213.83-22.75Q214.58-24.25 215.66-25.28 216.73-26.3 218.11-26.8 219.48-27.3 221.18-27.3L221.18-27.3Q225.48-27.3 227.76-24.98 230.03-22.65 230.03-17.5L230.03-17.5 230.03-5.7Q230.03-3.35 231.11-2.73 232.18-2.1 233.88-2.1L233.88-2.1 234.03-2.1 234.03 0 225.33 0 225.33-17.25Q225.33-20.5 224.11-22.3 222.88-24.1 219.83-24.1L219.83-24.1Q217.78-24.1 216.43-23.1 215.08-22.1 214.43-20.28 213.78-18.45 213.78-16L213.78-16 213.78-5.45Q213.78-3.25 215.01-2.68 216.23-2.1 217.88-2.1L217.88-2.1 218.03-2.1 218.03 0Z" opacity="1" transform="matrix(1,0,0,1,0,0)" fill="#000000" class="wordmark-text-0" data-fill-palette-color="primary" id="text-0"></path></svg></g></svg></g><g transform="matrix(1,0,0,1,124.76267130064369,73.87238959289122)"><svg viewBox="0 0 232.209792 15.047249849636216" height="15.047249849636216" width="232.209792"><g transform="matrix(1,0,0,1,0,0)"><svg width="232.209792" viewBox="1.34 -36.13 573.75 37.18" height="15.047249849636216" data-palette-color="#aab7c0"><path d="M10.01 0.37L10.01 0.37Q8.42 0.37 8.42-0.54L8.42-0.54Q8.42-1.25 9.3-1.25L9.3-1.25 10.5-1.12Q11.96-1.12 12.45-2.76L12.45-2.76Q12.89-4.15 12.89-7.74L12.89-7.74 12.89-30.57 12.23-30.57Q7.96-30.57 5.42-29.69L5.42-29.69Q3.66-29.05 3.03-27.51L3.03-27.51Q2.56-26.39 2.05-26.39L2.05-26.39Q1.34-26.39 1.34-27.22L1.34-27.22Q1.34-27.47 1.45-27.78 1.56-28.1 1.71-28.54L1.71-28.54Q2.1-29.71 2.17-30.98 2.25-32.25 2.45-32.68 2.66-33.11 3.03-33.11 3.39-33.11 3.69-33.04 3.98-32.98 4.54-32.91L4.54-32.91Q6.01-32.71 8.23-32.71L8.23-32.71 23.71-32.71Q25.51-32.71 26.33-32.91 27.15-33.11 27.51-33.11L27.51-33.11Q28.32-33.11 28.32-32.35L28.32-32.35Q28.32-31.96 28.17-31.42L28.17-31.42Q27.81-30.22 27.7-29.36 27.59-28.49 27.49-27.94 27.39-27.39 27.27-27.08L27.27-27.08Q27.08-26.54 26.68-26.54 26.29-26.54 26.18-26.82 26.07-27.1 25.95-27.91 25.83-28.71 25.54-29.22 25.24-29.74 24.76-30.03L24.76-30.03Q23.9-30.57 21.97-30.57L21.97-30.57 16.72-30.57 16.72-7.74Q16.72-4.05 17.05-2.99 17.38-1.93 17.86-1.53 18.33-1.12 19.12-1.12L19.12-1.12 20.29-1.25Q21.17-1.25 21.17-0.54L21.17-0.54Q21.17 0.37 19.6 0.37L19.6 0.37Q18.8 0.37 17.9 0.22L17.9 0.22Q14.97-0.24 12.88 0.06 10.79 0.37 10.01 0.37ZM32.93 0.37L32.93 0.37Q31.32 0.37 31.32-0.54L31.32-0.54Q31.32-1.25 32.22-1.25L32.22-1.25 33.44-1.12Q34.01-1.12 34.37-1.33 34.74-1.54 34.93-2.22L34.93-2.22Q35.32-3.47 35.32-7.74L35.32-7.74 35.32-26.93Q35.32-29.25 34.96-29.94 34.59-30.64 34.18-30.88 33.76-31.13 32.85-31.27 31.93-31.42 31.93-32.03L31.93-32.03Q31.93-32.59 33.18-32.84L33.18-32.84Q36.08-33.45 37.18-34.06L37.18-34.06Q38.67-34.91 39.22-34.91 39.77-34.91 39.77-34.35L39.77-34.35Q39.77-34.08 39.67-33.79L39.67-33.79Q39.16-32.47 39.13-30.44 39.11-28.42 39.11-27.12L39.11-27.12 39.11-17.6Q41.14-21.48 44.85-22.66L44.85-22.66Q46.02-23.02 47.19-23.02L47.19-23.02Q50.75-23.02 52.71-20.95 54.66-18.87 54.66-14.48L54.66-14.48 54.66-7.74Q54.66-3.47 54.95-2.5 55.25-1.54 55.61-1.33 55.98-1.12 56.54-1.12L56.54-1.12 57.76-1.25Q58.66-1.25 58.66-0.54L58.66-0.54Q58.66 0.37 57.03 0.37L57.03 0.37Q56.1 0.37 55.05 0.18 54 0 52.79 0 51.58 0 50.5 0.18 49.41 0.37 48.48 0.37L48.48 0.37Q46.85 0.37 46.85-0.54L46.85-0.54Q46.85-1.25 47.75-1.25L47.75-1.25 48.97-1.12Q49.53-1.12 49.9-1.33 50.27-1.54 50.49-2.22L50.49-2.22Q50.88-3.44 50.88-7.74L50.88-7.74 50.88-13.31Q50.88-20.26 45.75-20.26L45.75-20.26Q42.04-20.26 40.11-16.41L40.11-16.41Q39.43-15.06 39.11-13.23L39.11-13.23 39.11-7.74Q39.11-3.47 39.4-2.5 39.69-1.54 40.06-1.33 40.43-1.12 40.99-1.12L40.99-1.12 42.21-1.25Q43.11-1.25 43.11-0.54L43.11-0.54Q43.11 0.37 41.5 0.37L41.5 0.37Q40.57 0.37 39.57 0.18 38.57 0 37.28 0 35.98 0 34.92 0.18 33.86 0.37 32.93 0.37ZM64.27-2.75Q62.84-4.32 62.07-6.47 61.3-8.62 61.3-11.24 61.3-13.87 62.2-16.06 63.11-18.26 64.69-19.82L64.69-19.82Q67.99-23.07 72.82-23.07L72.82-23.07Q76.83-23.07 79.29-20.43L79.29-20.43Q81.64-17.9 81.64-14.16L81.64-14.16Q81.64-12.94 81.31-12.49 80.98-12.04 80.49-11.95 80-11.87 79.15-11.8 78.29-11.74 77.07-11.67 75.85-11.6 74.35-11.52 72.85-11.45 71.28-11.35L71.28-11.35Q67.7-11.13 65.52-10.91L65.52-10.91Q66.06-4.35 70.55-2.39L70.55-2.39Q72.02-1.76 73.68-1.76L73.68-1.76Q77.19-1.76 79.24-3.81L79.24-3.81Q80.12-4.69 80.59-4.69L80.59-4.69Q81.46-4.69 81.46-3.64L81.46-3.64Q81.46-3.1 80.73-2.34 80-1.59 78.63-0.78L78.63-0.78Q76.22 0.61 72.99 0.61 69.77 0.61 67.73-0.28 65.69-1.17 64.27-2.75ZM65.47-12.72L65.47-12.72Q76.92-13.31 77.53-13.96L77.53-13.96Q77.75-14.21 77.75-15.41 77.75-16.6 77.29-17.74 76.83-18.87 76.04-19.68L76.04-19.68Q74.43-21.31 72.04-21.31L72.04-21.31Q69.33-21.31 67.48-19.04L67.48-19.04Q65.52-16.67 65.47-12.72ZM101.63 0Q100.38 0 99.29 0.18 98.21 0.37 96.95 0.37 95.69 0.37 95.69-0.45 95.69-1.27 96.84-1.27L96.84-1.27Q98.04-1.27 98.55-1.71L98.55-1.71Q99.38-2.47 100.19-4.17 100.99-5.88 101.69-7.37 102.38-8.86 103.29-10.85 104.19-12.84 105.28-15.3 106.36-17.75 107.56-20.51L107.56-20.51Q110.68-27.76 111.68-30.26 112.69-32.76 112.8-33.03 112.91-33.3 113.03-33.52L113.03-33.52Q113.34-34.03 113.56-34.03 113.78-34.03 113.93-33.97 114.08-33.91 114.25-33.74L114.25-33.74Q114.61-33.28 114.98-32.36 115.35-31.45 115.97-29.88 116.59-28.32 117.4-26.34 118.2-24.37 119.11-22.09 120.01-19.82 120.93-17.57 121.84-15.31 122.71-13.18 123.57-11.06 124.26-9.35L124.26-9.35Q126.36-4.25 126.94-3.25 127.53-2.25 127.92-1.86L127.92-1.86Q128.53-1.27 129.73-1.27 130.92-1.27 130.92-0.45 130.92 0.37 129.38 0.37L129.38 0.37Q128.73 0.37 128.25 0.31 127.77 0.24 127.28 0.2L127.28 0.2Q125.87 0 124.77 0L124.77 0 120.06 0.37Q118.47 0.37 118.47-0.54L118.47-0.54Q118.47-1.27 119.35-1.27L119.35-1.27 120.82-1.1Q121.74-1.1 122.04-1.5 122.33-1.9 122.33-2.51L122.33-2.51Q122.33-3.66 121.35-6.08L121.35-6.08 119.33-11.16 105.78-11.16Q105.19-9.69 104.69-8.47 104.19-7.25 103.77-6.1L103.77-6.1Q103.12-4.25 103.12-3.19 103.12-2.12 103.49-1.62 103.87-1.12 104.92-1.12L104.92-1.12 106.39-1.25Q107.27-1.25 107.27-0.54L107.27-0.54Q107.27 0.37 105.68 0.37L105.68 0.37 101.63 0ZM106.66-13.23L118.5-13.23 112.69-27.78Q111-23.51 106.66-13.23L106.66-13.23ZM133.53 0.37L133.53 0.37Q131.9 0.37 131.9-0.54L131.9-0.54Q131.9-1.25 132.8-1.25L132.8-1.25 134.02-1.12Q134.58-1.12 134.95-1.33 135.31-1.54 135.51-2.22L135.51-2.22Q135.9-3.47 135.9-7.74L135.9-7.74 135.9-15.04Q135.9-17.53 135.6-18.15 135.29-18.77 134.86-19.01 134.44-19.24 133.47-19.38 132.51-19.53 132.51-20.14L132.51-20.14Q132.51-20.7 133.75-20.95L133.75-20.95Q136.66-21.56 137.76-22.17L137.76-22.17Q139.25-23.02 139.79-23.02 140.34-23.02 140.34-22.46L140.34-22.46Q140.34-22.19 140.23-21.9 140.12-21.61 140-21.19L140-21.19Q139.81-20.36 139.71-18.07L139.71-18.07Q141.83-21.63 144.84-22.51L144.84-22.51Q145.72-22.78 146.8-22.78 147.89-22.78 148.73-22 149.57-21.22 149.57-20.34 149.57-19.46 149.38-19.04 149.18-18.63 148.89-18.33L148.89-18.33Q148.25-17.7 147.75-17.7 147.25-17.7 146.98-17.96 146.72-18.21 146.37-18.9L146.37-18.9Q145.76-20.12 145.01-20.12 144.25-20.12 143.57-19.79 142.88-19.46 142.2-18.8L142.2-18.8Q140.71-17.41 139.68-15.01L139.68-15.01 139.68-7.74Q139.68-3.1 139.94-2.28 140.2-1.46 140.58-1.31 140.95-1.15 141.61-1.15L141.61-1.15 143.79-1.34Q144.27-1.34 144.57-1.11 144.86-0.88 144.86-0.54L144.86-0.54Q144.86 0.37 143.08 0.37L143.08 0.37 137.93 0Q136.68 0 135.57 0.18 134.46 0.37 133.53 0.37ZM165.71-20.61L165.71-20.61Q165.71-19.95 164.93-19.95L164.93-19.95 157.99-20.02 157.99-6.49Q157.99-2.71 159.82-2L159.82-2Q160.39-1.78 161.14-1.78 161.9-1.78 162.52-2.04 163.14-2.29 163.63-2.59 164.12-2.88 164.46-3.14 164.8-3.39 165.11-3.39 165.41-3.39 165.66-3.05 165.9-2.71 165.9-2.37L165.9-2.37Q165.9-1.51 163.73-0.32L163.73-0.32Q162.07 0.61 159.56 0.61 157.04 0.61 155.62-1.18 154.21-2.98 154.21-6.15L154.21-6.15 154.21-20.09 152.72-20.09Q150.96-20.09 150.96-21L150.96-21Q150.96-21.66 151.94-21.9 152.91-22.14 153.62-22.77 154.33-23.39 154.78-24.18 155.23-24.98 155.5-25.83 155.77-26.68 155.99-27.39L155.99-27.39Q156.53-29 157.21-29L157.21-29Q157.99-29 157.99-27.61L157.99-27.61 157.99-22.09 164.85-22.24Q165.37-22.24 165.66-21.02L165.66-21.02Q165.71-20.75 165.71-20.61ZM182.04-16.53L182.04-16.53Q182.04-20.21 183.42-23.3 184.79-26.39 187.15-28.63 189.51-30.86 192.61-32.09 195.71-33.33 199.3-33.33 202.89-33.33 205.96-32.02 209.04-30.71 211.23-28.42L211.23-28.42Q215.85-23.56 215.85-16.09L215.85-16.09Q215.85-9.01 211.09-4.25L211.09-4.25Q206.23 0.61 198.73 0.61L198.73 0.61Q191.41 0.61 186.67-4.3L186.67-4.3Q182.04-9.13 182.04-16.53ZM186.21-17.92L186.21-17.92Q186.21-14.75 187.25-11.68 188.29-8.62 190.19-6.35L190.19-6.35Q194.27-1.42 200.49-1.42L200.49-1.42Q205.3-1.42 208.38-5.03L208.38-5.03Q211.55-8.74 211.55-14.79L211.55-14.79Q211.55-21.95 207.72-26.66L207.72-26.66Q203.91-31.3 198.08-31.3L198.08-31.3Q193.27-31.3 189.8-27.64L189.8-27.64Q186.21-23.83 186.21-17.92ZM222.12 0.37L222.12 0.37Q220.49 0.37 220.49-0.54L220.49-0.54Q220.49-1.25 221.39-1.25L221.39-1.25 222.37-1.12Q222.93-1.12 223.28-1.33 223.63-1.54 223.81-2.22L223.81-2.22Q224.12-3.37 224.12-7.74L224.12-7.74 224.12-20.48 221.83-20.53Q221.41-20.53 221.41-21L221.41-21Q221.41-21.9 221.72-22.18 222.02-22.46 222.22-22.46L222.22-22.46 224.12-22.46 224.12-22.53Q224.12-32.76 228.42-35.25L228.42-35.25Q229.91-36.13 231.98-36.13L231.98-36.13Q233.77-36.13 234.66-35.75 235.55-35.38 235.96-35.14 236.38-34.91 236.75-34.62L236.75-34.62Q237.58-33.89 237.58-33.19 237.58-32.5 237.11-32.09 236.65-31.69 236.18-31.69 235.72-31.69 235.45-31.73 235.18-31.76 234.89-31.93L234.89-31.93Q234.3-32.25 233.75-32.87 233.21-33.5 233.02-33.7 232.84-33.91 232.59-34.06L232.59-34.06Q232.03-34.38 231.04-34.38 230.06-34.38 229.48-33.68 228.91-32.98 228.59-31.54L228.59-31.54Q228.1-29.22 228.1-22.9L228.1-22.9 228.1-22.46 233.23-22.46Q234.01-22.46 234.01-21.8L234.01-21.8Q234.01-21.02 233.68-20.67 233.35-20.31 233.16-20.31L233.16-20.31 228.1-20.41 228.1-7.79Q228.1-3.27 228.4-2.39 228.69-1.51 229.09-1.34 229.49-1.17 230.15-1.17L230.15-1.17 232.57-1.34Q233.67-1.34 233.67-0.49 233.67 0.37 231.89 0.37L231.89 0.37 226.27 0Q225.03 0 223.99 0.18 222.95 0.37 222.12 0.37ZM258.1 0.37L258.1 0.37Q256.52 0.37 256.52-0.54L256.52-0.54Q256.52-1.25 257.39-1.25L257.39-1.25 258.59-1.12Q260.06-1.12 260.54-2.76L260.54-2.76Q260.98-4.15 260.98-7.74L260.98-7.74 260.98-30.57 260.32-30.57Q256.05-30.57 253.51-29.69L253.51-29.69Q251.75-29.05 251.12-27.51L251.12-27.51Q250.66-26.39 250.14-26.39L250.14-26.39Q249.44-26.39 249.44-27.22L249.44-27.22Q249.44-27.47 249.55-27.78 249.66-28.1 249.8-28.54L249.8-28.54Q250.19-29.71 250.27-30.98 250.34-32.25 250.55-32.68 250.75-33.11 251.12-33.11 251.49-33.11 251.78-33.04 252.07-32.98 252.63-32.91L252.63-32.91Q254.1-32.71 256.32-32.71L256.32-32.71 271.8-32.71Q273.61-32.71 274.42-32.91 275.24-33.11 275.61-33.11L275.61-33.11Q276.41-33.11 276.41-32.35L276.41-32.35Q276.41-31.96 276.27-31.42L276.27-31.42Q275.9-30.22 275.79-29.36 275.68-28.49 275.58-27.94 275.49-27.39 275.36-27.08L275.36-27.08Q275.17-26.54 274.78-26.54 274.39-26.54 274.28-26.82 274.17-27.1 274.04-27.91 273.92-28.71 273.63-29.22 273.34-29.74 272.85-30.03L272.85-30.03Q271.99-30.57 270.07-30.57L270.07-30.57 264.82-30.57 264.82-7.74Q264.82-4.05 265.15-2.99 265.48-1.93 265.95-1.53 266.43-1.12 267.21-1.12L267.21-1.12 268.38-1.25Q269.26-1.25 269.26-0.54L269.26-0.54Q269.26 0.37 267.7 0.37L267.7 0.37Q266.89 0.37 265.99 0.22L265.99 0.22Q263.06-0.24 260.97 0.06 258.88 0.37 258.1 0.37ZM281.02 0.37L281.02 0.37Q279.41 0.37 279.41-0.54L279.41-0.54Q279.41-1.25 280.32-1.25L280.32-1.25 281.54-1.12Q282.1-1.12 282.47-1.33 282.83-1.54 283.03-2.22L283.03-2.22Q283.42-3.47 283.42-7.74L283.42-7.74 283.42-26.93Q283.42-29.25 283.05-29.94 282.68-30.64 282.27-30.88 281.85-31.13 280.94-31.27 280.02-31.42 280.02-32.03L280.02-32.03Q280.02-32.59 281.27-32.84L281.27-32.84Q284.17-33.45 285.27-34.06L285.27-34.06Q286.76-34.91 287.31-34.91 287.86-34.91 287.86-34.35L287.86-34.35Q287.86-34.08 287.76-33.79L287.76-33.79Q287.25-32.47 287.23-30.44 287.2-28.42 287.2-27.12L287.2-27.12 287.2-17.6Q289.23-21.48 292.94-22.66L292.94-22.66Q294.11-23.02 295.28-23.02L295.28-23.02Q298.85-23.02 300.8-20.95 302.75-18.87 302.75-14.48L302.75-14.48 302.75-7.74Q302.75-3.47 303.05-2.5 303.34-1.54 303.71-1.33 304.07-1.12 304.63-1.12L304.63-1.12 305.85-1.25Q306.76-1.25 306.76-0.54L306.76-0.54Q306.76 0.37 305.12 0.37L305.12 0.37Q304.19 0.37 303.14 0.18 302.09 0 300.89 0 299.68 0 298.59 0.18 297.5 0.37 296.58 0.37L296.58 0.37Q294.94 0.37 294.94-0.54L294.94-0.54Q294.94-1.25 295.84-1.25L295.84-1.25 297.06-1.12Q297.63-1.12 297.99-1.33 298.36-1.54 298.58-2.22L298.58-2.22Q298.97-3.44 298.97-7.74L298.97-7.74 298.97-13.31Q298.97-20.26 293.84-20.26L293.84-20.26Q290.13-20.26 288.2-16.41L288.2-16.41Q287.52-15.06 287.2-13.23L287.2-13.23 287.2-7.74Q287.2-3.47 287.49-2.5 287.79-1.54 288.15-1.33 288.52-1.12 289.08-1.12L289.08-1.12 290.3-1.25Q291.21-1.25 291.21-0.54L291.21-0.54Q291.21 0.37 289.59 0.37L289.59 0.37Q288.67 0.37 287.67 0.18 286.66 0 285.37 0 284.08 0 283.01 0.18 281.95 0.37 281.02 0.37ZM312.36-2.75Q310.93-4.32 310.16-6.47 309.39-8.62 309.39-11.24 309.39-13.87 310.29-16.06 311.2-18.26 312.78-19.82L312.78-19.82Q316.08-23.07 320.91-23.07L320.91-23.07Q324.92-23.07 327.38-20.43L327.38-20.43Q329.73-17.9 329.73-14.16L329.73-14.16Q329.73-12.94 329.4-12.49 329.07-12.04 328.58-11.95 328.09-11.87 327.24-11.8 326.38-11.74 325.16-11.67 323.94-11.6 322.44-11.52 320.94-11.45 319.38-11.35L319.38-11.35Q315.79-11.13 313.61-10.91L313.61-10.91Q314.15-4.35 318.64-2.39L318.64-2.39Q320.11-1.76 321.77-1.76L321.77-1.76Q325.28-1.76 327.34-3.81L327.34-3.81Q328.21-4.69 328.68-4.69L328.68-4.69Q329.56-4.69 329.56-3.64L329.56-3.64Q329.56-3.1 328.82-2.34 328.09-1.59 326.73-0.78L326.73-0.78Q324.31 0.61 321.09 0.61 317.86 0.61 315.82-0.28 313.79-1.17 312.36-2.75ZM313.57-12.72L313.57-12.72Q325.02-13.31 325.63-13.96L325.63-13.96Q325.85-14.21 325.85-15.41 325.85-16.6 325.38-17.74 324.92-18.87 324.14-19.68L324.14-19.68Q322.53-21.31 320.13-21.31L320.13-21.31Q317.42-21.31 315.57-19.04L315.57-19.04Q313.61-16.67 313.57-12.72ZM351.65 0L347.45 0.37Q345.86 0.37 345.86-0.54L345.86-0.54Q345.86-1.25 346.74-1.25L346.74-1.25 347.94-1.12Q349.25-1.12 349.77-2.39L349.77-2.39Q350.33-3.81 350.33-7.74L350.33-7.74 350.33-24.98Q350.33-29.08 349.91-30.1 349.5-31.13 349.01-31.37 348.52-31.62 347.79-31.62L347.79-31.62 346.74-31.49Q345.86-31.49 345.86-32.2L345.86-32.2Q345.86-33.11 347.2-33.11 348.55-33.11 349.55-32.91 350.55-32.71 351.46-32.71 352.38-32.71 353.14-32.81 353.89-32.91 354.72-33.01L354.72-33.01Q357.07-33.33 358.82-33.33 360.58-33.33 362.35-32.81 364.12-32.3 365.39-31.35L365.39-31.35Q368.08-29.37 368.08-26.22L368.08-26.22Q368.08-22.05 364.54-19.14L364.54-19.14Q367.59-18.29 369.66-15.72L369.66-15.72Q371.84-13.06 371.84-9.79L371.84-9.79Q371.84-5.15 368.76-2.27L368.76-2.27Q365.69 0.61 360.7 0.61L360.7 0.61Q359.14 0.61 357.07 0.39L357.07 0.39Q353.04 0 351.65 0L351.65 0ZM354.16-26.95L354.16-19.6Q356.9-19.34 358.61-19.34L358.61-19.34Q361.07-19.34 361.63-19.41 362.19-19.48 362.66-19.9 363.12-20.31 363.51-20.97L363.51-20.97Q364.42-22.49 364.42-24.19 364.42-25.9 363.83-27.21 363.24-28.52 362.24-29.44L362.24-29.44Q360.19-31.3 357.09-31.3L357.09-31.3Q355.6-31.3 354.28-30.79L354.28-30.79Q354.21-29.57 354.2-28.94 354.19-28.32 354.17-27.83 354.16-27.34 354.16-26.95L354.16-26.95ZM365.55-14.64Q364.54-15.89 363.06-16.66 361.58-17.43 360.27-17.43L360.27-17.43 357.6-17.43Q356.24-17.43 354.16-17.31L354.16-17.31 354.16-11.25Q354.16-5.79 354.33-2.83L354.33-2.83Q356.51-1.46 359.92-1.46L359.92-1.46Q365.37-1.46 367.08-5.37L367.08-5.37Q367.64-6.69 367.64-8.44 367.64-10.18 367.1-11.78 366.56-13.38 365.55-14.64ZM376.13-10.84L376.13-10.84Q376.13-13.21 376.99-15.43 377.84-17.65 379.4-19.34L379.4-19.34Q382.82-23.02 387.92-23.02L387.92-23.02Q393.59-23.02 396.64-19.63L396.64-19.63Q399.4-16.55 399.4-11.65L399.4-11.65Q399.4-6.69 396.1-3.08L396.1-3.08Q392.73 0.61 387.61 0.61L387.61 0.61Q381.94 0.61 378.92-2.78L378.92-2.78Q376.13-5.86 376.13-10.84ZM380.26-11.87L380.26-11.87Q380.26-9.47 380.92-7.4 381.58-5.32 382.72-3.96L382.72-3.96Q384.99-1.17 388.46-1.17L388.46-1.17Q391.54-1.17 393.47-3.61L393.47-3.61Q395.47-6.15 395.47-10.16L395.47-10.16Q395.47-15.45 393.03-18.46L393.03-18.46Q390.73-21.22 387.26-21.22L387.26-21.22Q384.19-21.22 382.26-18.77L382.26-18.77Q380.26-16.24 380.26-11.87ZM404.08 0.37L404.08 0.37Q402.47 0.37 402.47-0.54L402.47-0.54Q402.47-1.25 403.38-1.25L403.38-1.25 404.6-1.12Q405.16-1.12 405.52-1.33 405.89-1.54 406.09-2.22L406.09-2.22Q406.48-3.47 406.48-7.74L406.48-7.74 406.48-25.93Q406.48-29.98 404.79-30.22L404.79-30.22Q403.57-30.42 403.57-31.03L403.57-31.03Q403.57-31.59 404.72-31.82 405.87-32.06 406.79-32.41 407.72-32.76 408.43-33.09 409.14-33.42 409.64-33.67 410.14-33.91 410.36-33.91L410.36-33.91Q410.92-33.91 410.92-33.35L410.92-33.35Q410.92-33.08 410.82-32.79L410.82-32.79Q410.31-31.47 410.28-29.44 410.26-27.42 410.26-26.12L410.26-26.12 410.26-7.74Q410.26-3.47 410.55-2.5 410.85-1.54 411.21-1.33 411.58-1.12 412.14-1.12L412.14-1.12 413.36-1.25Q414.26-1.25 414.26-0.54L414.26-0.54Q414.26 0.37 412.65 0.37L412.65 0.37Q411.73 0.37 410.72 0.18 409.72 0 408.43 0 407.14 0 406.07 0.18 405.01 0.37 404.08 0.37ZM434.87-2.17L434.87-2.17Q432.25 0.61 428.01 0.61L428.01 0.61Q423.03 0.61 420.15-2.83L420.15-2.83Q417.48-6.05 417.48-11.04L417.48-11.04Q417.48-16.02 420.76-19.51L420.76-19.51Q424.05-23.02 428.96-23.02L428.96-23.02Q432.18-23.02 434.35-21.8L434.35-21.8 434.35-26.95Q434.35-29.25 433.99-29.94 433.62-30.64 433.21-30.88 432.79-31.13 431.88-31.27 430.96-31.42 430.96-32.03L430.96-32.03Q430.96-32.59 432.21-32.84L432.21-32.84Q435.14-33.45 436.23-34.08L436.23-34.08Q437.72-34.91 438.24-34.91L438.24-34.91Q438.8-34.91 438.8-34.35L438.8-34.35Q438.8-34.08 438.7-33.79L438.7-33.79Q438.19-32.47 438.16-30.44 438.14-28.42 438.14-27.15L438.14-27.15 438.14-7.15Q438.14-4.47 438.46-3.69 438.77-2.91 439.09-2.67 439.41-2.44 439.85-2.44L439.85-2.44 441.31-2.76Q442.02-2.76 442.02-2.12L442.02-2.12Q442.02-1.76 441.72-1.51 441.41-1.27 440.68-0.95 439.95-0.63 439.46-0.29 438.97 0.05 438.6 0.34L438.6 0.34Q437.77 1.05 437.31 1.05L437.31 1.05Q435.72 1.05 434.87-2.17ZM434.35-6.3L434.35-18.16Q432.13-21.19 428.2-21.19L428.2-21.19Q425.25-21.19 423.47-18.92L423.47-18.92Q421.56-16.53 421.56-12.38L421.56-12.38Q421.56-7.54 424.03-4.64L424.03-4.64Q426.32-1.9 429.52-1.9L429.52-1.9Q432.77-1.9 434.48-4.2L434.48-4.2Q434.35-5.1 434.35-6.3L434.35-6.3ZM458.32 0.37L458.32 0.37Q456.79 0.37 456.79-0.5 456.79-1.37 457.81-1.37L457.81-1.37Q459.35-1.37 459.98-1.83L459.98-1.83Q461.23-2.73 461.45-4.93L461.45-4.93Q461.5-5.44 461.56-6.49 461.62-7.54 461.71-8.95 461.79-10.35 461.86-12.05 461.94-13.75 462.02-15.54 462.11-17.33 462.18-19.14 462.25-20.95 462.3-22.58L462.3-22.58Q462.43-26.66 462.43-27.73 462.43-28.81 462.27-29.42 462.11-30.03 461.82-30.42L461.82-30.42Q461.28-31.1 460.08-31.27L460.08-31.27Q457.98-31.57 457.98-32.18L457.98-32.18Q457.98-32.59 458.29-32.85 458.59-33.11 459.08-33.11L459.08-33.11 462.91-32.76 465.06-32.86Q465.65-32.86 466.04-32.36 466.43-31.86 466.92-30.88L466.92-30.88 478.73-6.4Q479.15-7.35 479.83-8.91 480.52-10.47 481.33-12.38 482.15-14.28 483.08-16.41 484.01-18.53 484.91-20.63 485.81-22.73 486.64-24.66 487.47-26.59 488.11-28.09 488.74-29.59 489.16-30.54 489.57-31.49 489.73-31.9 489.89-32.3 490.36-32.64 490.82-32.98 491.45-32.98L491.45-32.98 493.75-32.89 496.68-33.11Q498.51-33.11 498.51-32.2L498.51-32.2Q498.51-31.76 497.7-31.6 496.9-31.45 496.34-31.32 495.78-31.2 495.29-30.96L495.29-30.96Q494.16-30.35 494.16-28.93L494.16-28.93 495.41-5.03Q495.6-1.88 497.78-1.46L497.78-1.46Q498.39-1.37 498.97-1.37L498.97-1.37Q500.02-1.37 500.02-0.5 500.02 0.37 498.49 0.37L498.49 0.37Q497.87 0.37 497.44 0.31 497 0.24 496.56 0.2L496.56 0.2Q495.24 0 494.16 0L494.16 0 488.96 0.37Q487.38 0.37 487.38-0.54L487.38-0.54Q487.38-1.29 488.52-1.29 489.67-1.29 490.2-1.48 490.72-1.66 490.97-2.05L490.97-2.05Q491.31-2.64 491.31-4.81L491.31-4.81 491.31-7.1Q491.31-8.76 491.06-13.84 490.82-18.92 490.72-21.09L490.72-21.09Q490.53-25.68 490.36-28.05L490.36-28.05 478.81-1.59Q478.17-0.15 477.66-0.15L477.66-0.15Q477.32-0.15 477.09-0.5 476.85-0.85 476.46-1.64L476.46-1.64 464.65-25.98Q463.72-13.55 463.72-3.25L463.72-3.25Q463.72-1.25 466.97-1.25L466.97-1.25Q467.85-1.25 467.85-0.54L467.85-0.54Q467.85 0.37 466.26 0.37L466.26 0.37 462.3 0Q461.06 0 459.96 0.18 458.86 0.37 458.32 0.37ZM491.11-29.76L491.09-29.74 491.11-29.76ZM503.46-10.84L503.46-10.84Q503.46-13.21 504.32-15.43 505.17-17.65 506.73-19.34L506.73-19.34Q510.15-23.02 515.26-23.02L515.26-23.02Q520.92-23.02 523.97-19.63L523.97-19.63Q526.73-16.55 526.73-11.65L526.73-11.65Q526.73-6.69 523.43-3.08L523.43-3.08Q520.06 0.61 514.94 0.61L514.94 0.61Q509.27 0.61 506.25-2.78L506.25-2.78Q503.46-5.86 503.46-10.84ZM507.59-11.87L507.59-11.87Q507.59-9.47 508.25-7.4 508.91-5.32 510.05-3.96L510.05-3.96Q512.33-1.17 515.79-1.17L515.79-1.17Q518.87-1.17 520.8-3.61L520.8-3.61Q522.8-6.15 522.8-10.16L522.8-10.16Q522.8-15.45 520.36-18.46L520.36-18.46Q518.06-21.22 514.6-21.22L514.6-21.22Q511.52-21.22 509.59-18.77L509.59-18.77Q507.59-16.24 507.59-11.87ZM549.97-22.58L552.8-22.83Q553.8-22.83 553.8-22.22L553.8-22.22Q553.8-21.7 552.87-21.37 551.95-21.04 551.5-20.76 551.04-20.48 550.6-19.95L550.6-19.95Q549.87-19.02 548.68-16.33L548.68-16.33 541.28-0.1Q540.94 0.61 540.62 0.61L540.62 0.61Q540.13 0.61 539.84-0.1L539.84-0.1 531.63-18.24Q530.9-19.8 530.54-20.29L530.54-20.29Q529.9-21.04 528.83-21.31 527.75-21.58 527.75-22.24L527.75-22.24Q527.75-22.46 528.01-22.64 528.27-22.83 528.75-22.83L528.75-22.83 532.54-22.56Q534.08-22.56 534.86-22.66L534.86-22.66Q536.22-22.83 537.1-22.83L537.1-22.83Q538.86-22.83 538.86-22.12L538.86-22.12Q538.86-21.39 536.81-21.29L536.81-21.29Q535.3-21.22 535.3-20.29L535.3-20.29Q535.3-19.48 535.83-18.36L535.83-18.36 541.64-5.57 546.7-17.29Q547.63-19.46 547.63-20.14 547.63-20.83 547.28-21.02 546.94-21.22 545.98-21.3 545.01-21.39 544.59-21.56 544.16-21.73 544.16-22.12L544.16-22.12Q544.16-22.83 545.82-22.83L545.82-22.83 549.97-22.58ZM557.72-2.75Q556.29-4.32 555.52-6.47 554.75-8.62 554.75-11.24 554.75-13.87 555.66-16.06 556.56-18.26 558.15-19.82L558.15-19.82Q561.44-23.07 566.28-23.07L566.28-23.07Q570.28-23.07 572.75-20.43L572.75-20.43Q575.09-17.9 575.09-14.16L575.09-14.16Q575.09-12.94 574.76-12.49 574.43-12.04 573.94-11.95 573.45-11.87 572.6-11.8 571.74-11.74 570.52-11.67 569.3-11.6 567.8-11.52 566.3-11.45 564.74-11.35L564.74-11.35Q561.15-11.13 558.98-10.91L558.98-10.91Q559.51-4.35 564-2.39L564-2.39Q565.47-1.76 567.13-1.76L567.13-1.76Q570.65-1.76 572.7-3.81L572.7-3.81Q573.58-4.69 574.04-4.69L574.04-4.69Q574.92-4.69 574.92-3.64L574.92-3.64Q574.92-3.1 574.19-2.34 573.45-1.59 572.09-0.78L572.09-0.78Q569.67 0.61 566.45 0.61 563.22 0.61 561.19-0.28 559.15-1.17 557.72-2.75ZM558.93-12.72L558.93-12.72Q570.38-13.31 570.99-13.96L570.99-13.96Q571.21-14.21 571.21-15.41 571.21-16.6 570.74-17.74 570.28-18.87 569.5-19.68L569.5-19.68Q567.89-21.31 565.49-21.31L565.49-21.31Q562.78-21.31 560.93-19.04L560.93-19.04Q558.98-16.67 558.93-12.72Z" opacity="1" transform="matrix(1,0,0,1,0,0)" fill="#000000" class="slogan-text-1" data-fill-palette-color="secondary" id="text-1"></path></svg></g></svg></g></svg></g></svg></g><g transform="matrix(1,0,0,1,409.62875888337885,0)"><svg viewBox="0 0 122.88694170957295 122.88694170957295" height="122.88694170957295" width="122.88694170957295"><g data-palette-color="#4a596d"><rect width="33.5890974006166" height="122.88694170957295" fill="#000000" stroke="transparent" data-fill-palette-color="accent" x="0" fill-opacity="1"></rect><rect width="33.5890974006166" height="122.88694170957295" fill="#000000" stroke="transparent" data-fill-palette-color="accent" x="40.96231390319098" fill-opacity="0.75"></rect><rect width="33.5890974006166" height="122.88694170957295" fill="#000000" stroke="transparent" data-fill-palette-color="accent" x="81.92462780638196" fill-opacity="0.5"></rect></g></svg></g></svg></g><defs></defs></svg><rect width="395.52" height="91.27288290439112" fill="none" stroke="none" visibility="hidden"></rect></g></svg></g></svg>